# xmcd
#
# Track frame offsets: 
#        150
#        13102
#        23840
#        37917
#        46360
#        65267
#        74452
#        86182
#        102080
#        112887
#        119602
#        137720
#        147405
#        159357
#        166550
#        184705
#        195272
#        202887
#        214250
#        225800
#
# Disc length: 3193 seconds
#
# Revision: 2
# Processed by: cddbd v1.5.2PL0 Copyright (c) Steve Scherf et al.
# Submitted via: ExactAudioCopy v0.99pb3
#
DISCID=040c7714
DTITLE=Los Heraldos Del Rey - Cantan Su Amor - Tesoros I
DYEAR=1997
DGENRE=Gospel and Religious
TTITLE0=Su Amor Es Más Hondo
TTITLE1=Cristo Siempre Llena El Alma
TTITLE2=Sin El Amor De Jesucristo
TTITLE3=Oh, Cantádmelas Otra Vez
TTITLE4=La Sangre De Cristo
TTITLE5=Eterna Roca Es Mi Jesús
TTITLE6=Cuando La Pena Llama
TTITLE7=La Historia De Cristo
TTITLE8=Dilo Desde La Montaña
TTITLE9=Si Satanás Golpea
TTITLE10=Venid A Mí
TTITLE11=Vendrá El Senor
TTITLE12=¿Quieres Ser Salvo De Toda Maldad?
TTITLE13=Música Bella Y Divina
TTITLE14=Salvo En Ti
TTITLE15=Cuando Llegue Al Cielo
TTITLE16=El Hombre Prudente
TTITLE17=Oye Cómo Marchan Los Peregrinos
TTITLE18=Marcharé Por La Vida
TTITLE19=Con Sin Igual Amor
EXTD=
EXTT0=
EXTT1=
EXTT2=
EXTT3=
EXTT4=
EXTT5=
EXTT6=
EXTT7=
EXTT8=
EXTT9=
EXTT10=
EXTT11=
EXTT12=
EXTT13=
EXTT14=
EXTT15=
EXTT16=
EXTT17=
EXTT18=
EXTT19=
PLAYORDER=
